<svg width="128" height="121" viewBox="0 0 128 121" fill="none" xmlns="http://www.w3.org/2000/svg">
<g filter="url(#filter0_d_184_169)">
<path d="M33.9309 86.5044C31.6436 86.5044 30.5 85.6821 30.5 84.0374V28.9714C30.5 27.3267 31.6436 26.5044 33.9309 26.5044C35.1392 26.5044 36.3045 26.9854 37.4265 27.9474L92.2565 78.5913H90.7029V28.9714C90.7029 27.3267 91.8465 26.5044 94.1338 26.5044C96.3779 26.5044 97.5 27.3267 97.5 28.9714V84.0374C97.5 85.6821 96.3779 86.5044 94.1338 86.5044C92.8823 86.5044 91.7171 86.0234 90.6381 85.0614L35.7434 34.4175H37.2971V84.0374C37.2971 85.6821 36.175 86.5044 33.9309 86.5044Z" fill="white"/>
</g>
<defs>
<filter id="filter0_d_184_169" x="0.5" y="0.504395" width="127" height="120" filterUnits="userSpaceOnUse" color-interpolation-filters="sRGB">
<feFlood flood-opacity="0" result="BackgroundImageFix"/>
<feColorMatrix in="SourceAlpha" type="matrix" values="0 0 0 0 0 0 0 0 0 0 0 0 0 0 0 0 0 0 127 0" result="hardAlpha"/>
<feOffset dy="4"/>
<feGaussianBlur stdDeviation="15"/>
<feComposite in2="hardAlpha" operator="out"/>
<feColorMatrix type="matrix" values="0 0 0 0 1 0 0 0 0 1 0 0 0 0 1 0 0 0 0.45 0"/>
<feBlend mode="normal" in2="BackgroundImageFix" result="effect1_dropShadow_184_169"/>
<feBlend mode="normal" in="SourceGraphic" in2="effect1_dropShadow_184_169" result="shape"/>
</filter>
</defs>
</svg>
