<svg width="131" height="121" viewBox="0 0 131 121" fill="none" xmlns="http://www.w3.org/2000/svg">
<g filter="url(#filter0_d_184_170)">
<path d="M57.7041 86.5044C48.2664 86.5044 41.3729 84.9529 37.0238 81.8498C32.6746 78.7467 30.5 73.8283 30.5 67.0946V45.8695C30.5 39.0737 32.6746 34.1398 37.0238 31.0678C41.3729 27.9647 48.2229 26.4442 57.5736 26.5062H73.3611C82.7988 26.5062 89.6706 28.0578 93.9762 31.1609C98.3254 34.2639 100.5 39.1823 100.5 45.916V67.0946C100.5 73.8283 98.3254 78.7467 93.9762 81.8498C89.6706 84.9529 82.7988 86.5044 73.3611 86.5044H57.7041ZM57.7041 81.617H73.3611C78.3627 81.617 82.3422 81.1516 85.2996 80.2206C88.2571 79.2897 90.3881 77.7692 91.6929 75.6591C92.9976 73.549 93.65 70.6942 93.65 67.0946V45.916C93.65 42.3475 92.9976 39.5082 91.6929 37.3981C90.3881 35.288 88.2571 33.7674 85.2996 32.8365C82.3422 31.8746 78.3627 31.3936 73.3611 31.3936H57.5736C52.5721 31.3626 48.5926 31.8125 45.6351 32.7434C42.7212 33.6433 40.6118 35.1638 39.3071 37.305C38.0023 39.4151 37.35 42.2699 37.35 45.8695V67.0946C37.35 70.6942 38.0023 73.549 39.3071 75.6591C40.6118 77.7692 42.7429 79.2897 45.7004 80.2206C48.6578 81.1516 52.6591 81.617 57.7041 81.617Z" fill="white"/>
</g>
<defs>
<filter id="filter0_d_184_170" x="0.5" y="0.504395" width="130" height="120" filterUnits="userSpaceOnUse" color-interpolation-filters="sRGB">
<feFlood flood-opacity="0" result="BackgroundImageFix"/>
<feColorMatrix in="SourceAlpha" type="matrix" values="0 0 0 0 0 0 0 0 0 0 0 0 0 0 0 0 0 0 127 0" result="hardAlpha"/>
<feOffset dy="4"/>
<feGaussianBlur stdDeviation="15"/>
<feComposite in2="hardAlpha" operator="out"/>
<feColorMatrix type="matrix" values="0 0 0 0 1 0 0 0 0 1 0 0 0 0 1 0 0 0 0.45 0"/>
<feBlend mode="normal" in2="BackgroundImageFix" result="effect1_dropShadow_184_170"/>
<feBlend mode="normal" in="SourceGraphic" in2="effect1_dropShadow_184_170" result="shape"/>
</filter>
</defs>
</svg>
