<svg width="127" height="121" viewBox="0 0 127 121" fill="none" xmlns="http://www.w3.org/2000/svg">
<g filter="url(#filter0_d_184_172)">
<path d="M54.0367 86.5044C46.1926 86.5044 40.3643 85.2767 36.5518 82.8214C32.7831 80.335 30.7673 76.4345 30.5044 71.1198C30.4606 70.3739 30.7454 69.7833 31.3589 69.3482C32.0162 68.882 32.8708 68.6489 33.9225 68.6489C34.9742 68.6489 35.8068 68.8665 36.4203 69.3016C37.0338 69.7367 37.3844 70.3272 37.4721 71.0732C37.6473 74.9892 38.962 77.7243 41.416 79.2783C43.87 80.8323 48.0769 81.6093 54.0367 81.6093H72.9677C79.1904 81.6093 83.5068 80.7546 85.917 79.0452C88.3711 77.3047 89.5981 74.2589 89.5981 69.9077C89.5981 65.4943 88.3711 62.4329 85.917 60.7235C83.5068 58.983 79.1904 58.1128 72.9677 58.1128H54.9569C47.2443 58.1128 41.5913 56.8385 37.9979 54.2899C34.4045 51.7414 32.6078 47.7476 32.6078 42.3086C32.6078 36.8696 34.3826 32.8758 37.9322 30.3272C41.5256 27.7787 47.1567 26.5044 54.8255 26.5044H73.2306C80.5927 26.5044 86.0485 27.6699 89.5981 30.0009C93.1914 32.3319 95.1196 35.9993 95.3825 41.0032C95.4702 41.7491 95.1853 42.3552 94.528 42.8214C93.9145 43.2565 93.06 43.4741 91.9644 43.4741C90.9565 43.4741 90.1459 43.2565 89.5324 42.8214C88.9188 42.3863 88.5683 41.7958 88.4806 41.0498C88.3053 37.4756 87.0783 34.9737 84.7996 33.544C82.5208 32.1143 78.6645 31.3995 73.2306 31.3995H54.8255C49.0848 31.3995 45.097 32.2076 42.8621 33.8237C40.6272 35.4088 39.5098 38.2371 39.5098 42.3086C39.5098 46.3801 40.6272 49.2239 42.8621 50.8401C45.1409 52.4251 49.1725 53.2177 54.9569 53.2177H72.9677C81.1186 53.2177 87.0783 54.5697 90.847 57.2736C94.6157 59.9465 96.5 64.1578 96.5 69.9077C96.5 75.6575 94.6157 79.8688 90.847 82.5417C87.0783 85.1835 81.1186 86.5044 72.9677 86.5044H54.0367Z" fill="white"/>
</g>
<defs>
<filter id="filter0_d_184_172" x="0.5" y="0.504395" width="126" height="120" filterUnits="userSpaceOnUse" color-interpolation-filters="sRGB">
<feFlood flood-opacity="0" result="BackgroundImageFix"/>
<feColorMatrix in="SourceAlpha" type="matrix" values="0 0 0 0 0 0 0 0 0 0 0 0 0 0 0 0 0 0 127 0" result="hardAlpha"/>
<feOffset dy="4"/>
<feGaussianBlur stdDeviation="15"/>
<feComposite in2="hardAlpha" operator="out"/>
<feColorMatrix type="matrix" values="0 0 0 0 1 0 0 0 0 1 0 0 0 0 1 0 0 0 0.45 0"/>
<feBlend mode="normal" in2="BackgroundImageFix" result="effect1_dropShadow_184_172"/>
<feBlend mode="normal" in="SourceGraphic" in2="effect1_dropShadow_184_172" result="shape"/>
</filter>
</defs>
</svg>
