<svg width="95" height="89" viewBox="0 0 95 89" fill="none" xmlns="http://www.w3.org/2000/svg">
<path d="M39.32 88.974C37.6219 88.974 36.3982 88.337 35.6491 87.0632L7.00006 37.5C6.35077 36.4738 1.00006 28.5 0.500061 27C0.500061 25 1.50006 25.5 2.50006 26C4.38644 27.2739 9.20094 34.5846 10.0001 36L41.3428 82.4985H38.5709L75.805 22.3085C76.6041 20.8931 90.9023 -0.349479 93 0.00437133C94.2986 0.181296 94.5 -0.495605 93 3.00439C92.2898 4.66141 93.5 1.50439 81.5 24.0044L43.9649 87.0632C43.2157 88.337 41.9421 88.974 40.1441 88.974H39.32Z" fill="#8B89FF"/>
</svg>
