<svg width="124" height="121" viewBox="0 0 124 121" fill="none" xmlns="http://www.w3.org/2000/svg">
<g filter="url(#filter0_d_184_176)">
<path d="M31.655 85.9308C29.8161 85.0003 29.5096 83.8682 30.7355 82.5346L57.136 55.225L32.1803 30.4742C30.8669 29.2026 31.1515 28.0705 33.0341 27.078C34.8729 26.1475 36.4928 26.3491 37.8939 27.6828L61.6674 51.317L86.2947 27.6363C87.6957 26.3336 89.3156 26.163 91.1545 27.1245C92.9933 28.086 93.2341 29.2181 91.8769 30.5208L66.0018 55.5972L93.1903 82.488C94.5038 83.7907 94.2192 84.9383 92.3366 85.9308C90.4978 86.8613 88.9216 86.6597 87.6082 85.326L61.4047 59.4587L36.4491 85.2795C35.1356 86.6132 33.5376 86.8303 31.655 85.9308Z" fill="white"/>
</g>
<defs>
<filter id="filter0_d_184_176" x="0" y="0.504395" width="124" height="120" filterUnits="userSpaceOnUse" color-interpolation-filters="sRGB">
<feFlood flood-opacity="0" result="BackgroundImageFix"/>
<feColorMatrix in="SourceAlpha" type="matrix" values="0 0 0 0 0 0 0 0 0 0 0 0 0 0 0 0 0 0 127 0" result="hardAlpha"/>
<feOffset dy="4"/>
<feGaussianBlur stdDeviation="15"/>
<feComposite in2="hardAlpha" operator="out"/>
<feColorMatrix type="matrix" values="0 0 0 0 1 0 0 0 0 1 0 0 0 0 1 0 0 0 0.45 0"/>
<feBlend mode="normal" in2="BackgroundImageFix" result="effect1_dropShadow_184_176"/>
<feBlend mode="normal" in="SourceGraphic" in2="effect1_dropShadow_184_176" result="shape"/>
</filter>
</defs>
</svg>
